<?xml version="1.0" encoding="utf-8"?>
<!-- Generated by IcoMoon.io -->
<!DOCTYPE svg PUBLIC "-//W3C//DTD SVG 1.1//EN" "http://www.w3.org/Graphics/SVG/1.1/DTD/svg11.dtd">
<svg version="1.1" xmlns="http://www.w3.org/2000/svg" xmlns:xlink="http://www.w3.org/1999/xlink" width="56" height="64" viewBox="0 0 56 64">
<path fill="rgb(209, 96, 61)" d="M56.302 28.151c0-15.547-12.604-28.151-28.151-28.151s-28.151 12.604-28.151 28.151c0 10.682 5.95 19.975 14.717 24.745l9.272-18.999c2.186-4.48 6.358-4.48 8.545 0l9.226 18.904c8.672-4.797 14.543-14.038 14.543-24.65z"></path>
<path fill="rgb(45, 20, 44)" d="M9.017 39.808c0.972 0 1.759-0.788 1.759-1.759s-0.788-1.759-1.759-1.759c-0.972 0-1.759 0.788-1.759 1.759s0.788 1.759 1.759 1.759z"></path>
<path fill="rgb(45, 20, 44)" d="M49.32 38.014c0 0.972-0.788 1.759-1.759 1.759s-1.759-0.788-1.759-1.759c0-0.972 0.788-1.759 1.759-1.759s1.759 0.788 1.759 1.759z"></path>
<path fill="rgb(45, 20, 44)" d="M28.151 63.798c-9.502 0-12.064-2.727-12.064-2.727-1.658-1.007-2.311-3.239-1.459-4.985l10.546-21.611c1.705-3.493 4.469-3.492 6.173 0l10.503 21.522c0.853 1.748 0.241 4.048-1.459 4.986 0 0-2.739 2.814-12.241 2.814zM36.817 58.614c0.486 0 0.88-0.394 0.88-0.88s-0.394-0.88-0.88-0.88c-0.486 0-0.88 0.394-0.88 0.88s0.394 0.88 0.88 0.88zM19.574 58.722c0.486 0 0.88-0.394 0.88-0.88s-0.394-0.88-0.88-0.88c-0.486 0-0.88 0.394-0.88 0.88s0.394 0.88 0.88 0.88z"></path>
</svg>
