<?xml version="1.0" encoding="utf-8"?>
<!-- Generated by IcoMoon.io -->
<!DOCTYPE svg PUBLIC "-//W3C//DTD SVG 1.1//EN" "http://www.w3.org/Graphics/SVG/1.1/DTD/svg11.dtd">
<svg version="1.1" xmlns="http://www.w3.org/2000/svg" xmlns:xlink="http://www.w3.org/1999/xlink" width="28" height="32" viewBox="0 0 28 32">
<path fill="rgb(209, 96, 61)" d="M28.151 14.076c0-7.774-6.302-14.076-14.076-14.076s-14.076 6.302-14.076 14.076c0 5.341 2.975 9.988 7.358 12.372l4.636-9.5c1.093-2.24 3.179-2.24 4.272 0l4.613 9.452c4.336-2.399 7.272-7.019 7.272-12.325z"></path>
<path fill="rgb(45, 20, 44)" d="M4.509 19.904c0.486 0 0.88-0.394 0.88-0.88s-0.394-0.88-0.88-0.88c-0.486 0-0.88 0.394-0.88 0.88s0.394 0.88 0.88 0.88z"></path>
<path fill="rgb(45, 20, 44)" d="M24.66 19.007c0 0.486-0.394 0.88-0.88 0.88s-0.88-0.394-0.88-0.88c0-0.486 0.394-0.88 0.88-0.88s0.88 0.394 0.88 0.88z"></path>
<path fill="rgb(45, 20, 44)" d="M14.076 31.899c-4.751 0-6.032-1.363-6.032-1.363-0.829-0.503-1.156-1.619-0.73-2.493l5.273-10.805c0.852-1.746 2.234-1.746 3.086 0l5.252 10.761c0.426 0.874 0.121 2.024-0.73 2.493 0 0-1.369 1.407-6.12 1.407zM14.955 28.977c0.243 0 0.44-0.197 0.44-0.44s-0.197-0.44-0.44-0.44c-0.243 0-0.44 0.197-0.44 0.44s0.197 0.44 0.44 0.44zM13.196 28.977c0.243 0 0.44-0.197 0.44-0.44s-0.197-0.44-0.44-0.44c-0.243 0-0.44 0.197-0.44 0.44s0.197 0.44 0.44 0.44z"></path>
</svg>
